# xmcd
#
# Track frame offsets: 
#        150
#        10200
#        19203
#        38318
#        51926
#        69716
#        79778
#        93083
#        105958
#        122349
#        134173
#        149265
#        177930
#        192837
#        211739
#        225614
#        237604
#
# Disc length: 3345 seconds
#
# Revision: 0
# Processed by: cddbd v1.5.1PL2 Copyright (c) Steve Scherf et al.
# Submitted via: ExactAudioCopy v0.95b4
#
DISCID=dd0d0f11
DTITLE=Ray Charles and his band - Big Sunny Blues I
DYEAR=1900
DGENRE=Blues
TTITLE0=Busted
TTITLE1=Hit the road Jack
TTITLE2=I can`t stop loving you
TTITLE3=You are my sunshine
TTITLE4=Ruby
TTITLE5=Sticks and stones
TTITLE6=Take these chains from my heart
TTITLE7=Them that Got
TTITLE8=Without love
TTITLE9=Don`t set me free
TTITLE10=I`m a fool tocare
TTITLE11=Makin` Whoopee
TTITLE12=Hard hearted Hanneh
TTITLE13=Baby, it`s cold outside
TTITLE14=At the club
TTITLE15=In the heart of the nigth
TTITLE16=Eleanor Rigby
EXTD=
EXTT0=
EXTT1=
EXTT2=
EXTT3=
EXTT4=
EXTT5=
EXTT6=
EXTT7=
EXTT8=
EXTT9=
EXTT10=
EXTT11=
EXTT12=
EXTT13=
EXTT14=
EXTT15=
EXTT16=
PLAYORDER=
